<svg xmlns="http://www.w3.org/2000/svg" xmlns:xlink="http://www.w3.org/1999/xlink" zoomAndPan="magnify" viewBox="0 0 375 374.999991" preserveAspectRatio="xMidYMid meet" version="1.0"><defs><g/></defs><g fill="#8c52ff" fill-opacity="0.6"><g transform="translate(13.974545, 187.845015)"><g><path d="M 111.644531 -137.765625 L 49.839844 -128.703125 C 41.851562 -127.53125 39.1875 -122.273438 39.84375 -117.789062 C 40.460938 -113.585938 44.140625 -109.972656 49.1875 -110.714844 L 57.59375 -111.945312 L 52.355469 -88.128906 L 45.910156 -87.183594 C 38.339844 -86.074219 35.375 -80.917969 36.03125 -76.433594 C 36.671875 -72.085938 40.648438 -68.375 47.375 -69.363281 L 48.777344 -69.570312 L 43.210938 -42.125 C 40.378906 -28.253906 35.140625 -24.910156 27.855469 -23.839844 C 22.808594 -23.101562 18.8125 -25.949219 17.058594 -29.128906 C 17.195312 -30.152344 17.191406 -31.152344 17.046875 -32.132812 C 16.101562 -38.578125 9.78125 -41.660156 4.316406 -40.859375 C -1.289062 -40.039062 -6.320312 -35.292969 -5.003906 -26.324219 C -3.054688 -13.007812 12.191406 -1.789062 30.550781 -4.480469 C 44.984375 -6.597656 58.175781 -15.257812 62.875 -38.851562 C 64.796875 -49.15625 67.574219 -62.449219 69.640625 -72.769531 L 78.046875 -74.003906 C 86.597656 -75.257812 89.238281 -80.65625 88.5625 -85.28125 C 87.964844 -89.34375 84.726562 -92.878906 80.523438 -92.261719 L 73.234375 -91.191406 L 77.773438 -114.90625 L 110.707031 -119.734375 C 118.515625 -121.167969 121.222656 -126.144531 120.5625 -130.628906 C 119.945312 -134.832031 116.40625 -138.464844 111.644531 -137.765625 Z M 111.644531 -137.765625 "/></g></g></g><g fill="#8c52ff" fill-opacity="1"><g transform="translate(10.00344, 184.055785)"><g><path d="M 111.644531 -137.765625 L 49.839844 -128.703125 C 41.851562 -127.53125 39.1875 -122.273438 39.84375 -117.789062 C 40.460938 -113.585938 44.140625 -109.972656 49.1875 -110.714844 L 57.59375 -111.945312 L 52.355469 -88.128906 L 45.910156 -87.183594 C 38.339844 -86.074219 35.375 -80.917969 36.03125 -76.433594 C 36.671875 -72.085938 40.648438 -68.375 47.375 -69.363281 L 48.777344 -69.570312 L 43.210938 -42.125 C 40.378906 -28.253906 35.140625 -24.910156 27.855469 -23.839844 C 22.808594 -23.101562 18.8125 -25.949219 17.058594 -29.128906 C 17.195312 -30.152344 17.191406 -31.152344 17.046875 -32.132812 C 16.101562 -38.578125 9.78125 -41.660156 4.316406 -40.859375 C -1.289062 -40.039062 -6.320312 -35.292969 -5.003906 -26.324219 C -3.054688 -13.007812 12.191406 -1.789062 30.550781 -4.480469 C 44.984375 -6.597656 58.175781 -15.257812 62.875 -38.851562 C 64.796875 -49.15625 67.574219 -62.449219 69.640625 -72.769531 L 78.046875 -74.003906 C 86.597656 -75.257812 89.238281 -80.65625 88.5625 -85.28125 C 87.964844 -89.34375 84.726562 -92.878906 80.523438 -92.261719 L 73.234375 -91.191406 L 77.773438 -114.90625 L 110.707031 -119.734375 C 118.515625 -121.167969 121.222656 -126.144531 120.5625 -130.628906 C 119.945312 -134.832031 116.40625 -138.464844 111.644531 -137.765625 Z M 111.644531 -137.765625 "/></g></g></g><g fill="#000000" fill-opacity="1"><g transform="translate(81.491982, 182.469455)"><g><path d="M 6.5625 -68.09375 C 8.320312 -69.863281 10.421875 -70.75 12.859375 -70.75 C 15.304688 -70.75 17.410156 -69.863281 19.171875 -68.09375 C 20.929688 -66.332031 21.8125 -64.226562 21.8125 -61.78125 C 21.8125 -59.34375 20.929688 -57.242188 19.171875 -55.484375 C 17.410156 -53.722656 15.304688 -52.84375 12.859375 -52.84375 C 10.421875 -52.84375 8.320312 -53.722656 6.5625 -55.484375 C 4.800781 -57.242188 3.921875 -59.34375 3.921875 -61.78125 C 3.921875 -64.226562 4.800781 -66.332031 6.5625 -68.09375 Z M 5.109375 -43.71875 L 5.109375 0 L 20.203125 0 L 20.203125 -43.71875 Z M 5.109375 -43.71875 "/></g></g></g><g fill="#000000" fill-opacity="1"><g transform="translate(102.971314, 182.469455)"><g><path d="M 5.109375 0 L 5.109375 -43.71875 L 20.203125 -43.71875 L 20.203125 -39.125 L 20.375 -39.125 C 24.289062 -43.039062 28.46875 -45 32.90625 -45 C 35.0625 -45 37.203125 -44.710938 39.328125 -44.140625 C 41.460938 -43.578125 43.507812 -42.695312 45.46875 -41.5 C 47.425781 -40.3125 49.015625 -38.625 50.234375 -36.4375 C 51.460938 -34.25 52.078125 -31.707031 52.078125 -28.8125 L 52.078125 0 L 36.984375 0 L 36.984375 -24.71875 C 36.984375 -26.988281 36.257812 -28.972656 34.8125 -30.671875 C 33.363281 -32.378906 31.476562 -33.234375 29.15625 -33.234375 C 26.875 -33.234375 24.8125 -32.351562 22.96875 -30.59375 C 21.125 -28.832031 20.203125 -26.875 20.203125 -24.71875 L 20.203125 0 Z M 5.109375 0 "/></g></g></g><g fill="#000000" fill-opacity="1"><g transform="translate(155.050169, 182.469455)"><g><path d="M 8.09375 -5.40625 C 4 -9.875 1.953125 -15.34375 1.953125 -21.8125 C 1.953125 -28.289062 4 -33.773438 8.09375 -38.265625 C 12.1875 -42.753906 17.382812 -45 23.6875 -45 C 29.488281 -45 34.265625 -43.179688 38.015625 -39.546875 L 38.015625 -73.296875 L 53.09375 -73.296875 L 53.09375 0 L 38.1875 0 L 38.1875 -4.9375 L 38.015625 -4.9375 C 34.265625 -0.789062 29.488281 1.28125 23.6875 1.28125 C 17.382812 1.28125 12.1875 -0.945312 8.09375 -5.40625 Z M 20.921875 -29.234375 C 18.960938 -27.304688 17.984375 -24.832031 17.984375 -21.8125 C 17.984375 -18.800781 18.921875 -16.34375 20.796875 -14.4375 C 22.671875 -12.539062 25.144531 -11.59375 28.21875 -11.59375 C 31.164062 -11.59375 33.59375 -12.554688 35.5 -14.484375 C 37.40625 -16.421875 38.359375 -18.863281 38.359375 -21.8125 C 38.359375 -24.832031 37.375 -27.304688 35.40625 -29.234375 C 33.445312 -31.171875 31.050781 -32.140625 28.21875 -32.140625 C 25.3125 -32.140625 22.878906 -31.171875 20.921875 -29.234375 Z M 20.921875 -29.234375 "/></g></g></g><g fill="#8c52ff" fill-opacity="0.6"><g transform="translate(50.515442, 326.176078)"><g><path d="M 126.492188 -60.921875 C 122.871094 -43.644531 116.371094 -35.246094 109.785156 -34.28125 C 106.980469 -33.867188 104.890625 -35.421875 104.480469 -38.226562 C 104.296875 -39.488281 104.488281 -41.089844 104.804688 -42.855469 L 118.324219 -107.824219 C 119.015625 -110.933594 119.242188 -114.257812 118.667969 -118.183594 C 116.734375 -131.355469 105.625 -139.75 91.332031 -137.652344 C 82.921875 -136.417969 73.328125 -131.574219 67.746094 -123.742188 C 62.4375 -129.691406 57.699219 -132.71875 48.167969 -131.324219 C 39.199219 -130.007812 34.136719 -123.539062 33.675781 -122.753906 C 32.042969 -126.09375 27.707031 -128.320312 22.382812 -127.542969 C 18.316406 -126.945312 12.960938 -124.441406 11.796875 -118.6875 L -9.421875 -12.503906 C -9.777344 -11.019531 -9.589844 -9.757812 -9.40625 -8.5 C -8.5 -2.332031 -3.082031 0.453125 2.382812 -0.347656 C 7.148438 -1.046875 11.921875 -4.609375 13.257812 -11.105469 L 29.25 -90.46875 C 31.238281 -100.351562 35.703125 -106.015625 42.007812 -106.941406 C 49.296875 -108.011719 52.082031 -102.691406 49.757812 -91.1875 L 35.121094 -20.179688 C 34.707031 -18.117188 34.554688 -16.234375 34.78125 -14.691406 C 35.664062 -8.664062 41.0625 -6.019531 46.386719 -6.800781 C 51.292969 -7.523438 56.066406 -11.085938 57.382812 -17.71875 L 72.820312 -94.996094 C 74.789062 -105.019531 79.449219 -112.289062 86.316406 -113.296875 C 91.78125 -114.097656 96.121094 -109.867188 94.605469 -102.628906 L 82.941406 -45.519531 C 82.214844 -41.6875 82.089844 -37.664062 82.5625 -34.4375 C 84.59375 -20.566406 96.835938 -14.199219 110.429688 -16.195312 C 125.847656 -18.453125 139.082031 -30.703125 143.765625 -59.304688 C 143.878906 -60.46875 144.015625 -61.488281 143.871094 -62.46875 C 143.152344 -67.375 138.539062 -69.5625 134.332031 -68.945312 C 130.691406 -68.410156 127.496094 -65.792969 126.492188 -60.921875 Z M 126.492188 -60.921875 "/></g></g></g><g fill="#8c52ff" fill-opacity="1"><g transform="translate(46.544338, 322.386848)"><g><path d="M 126.492188 -60.921875 C 122.871094 -43.644531 116.371094 -35.246094 109.785156 -34.28125 C 106.980469 -33.867188 104.890625 -35.421875 104.480469 -38.226562 C 104.296875 -39.488281 104.488281 -41.089844 104.804688 -42.855469 L 118.324219 -107.824219 C 119.015625 -110.933594 119.242188 -114.257812 118.667969 -118.183594 C 116.734375 -131.355469 105.625 -139.75 91.332031 -137.652344 C 82.921875 -136.417969 73.328125 -131.574219 67.746094 -123.742188 C 62.4375 -129.691406 57.699219 -132.71875 48.167969 -131.324219 C 39.199219 -130.007812 34.136719 -123.539062 33.675781 -122.753906 C 32.042969 -126.09375 27.707031 -128.320312 22.382812 -127.542969 C 18.316406 -126.945312 12.960938 -124.441406 11.796875 -118.6875 L -9.421875 -12.503906 C -9.777344 -11.019531 -9.589844 -9.757812 -9.40625 -8.5 C -8.5 -2.332031 -3.082031 0.453125 2.382812 -0.347656 C 7.148438 -1.046875 11.921875 -4.609375 13.257812 -11.105469 L 29.25 -90.46875 C 31.238281 -100.351562 35.703125 -106.015625 42.007812 -106.941406 C 49.296875 -108.011719 52.082031 -102.691406 49.757812 -91.1875 L 35.121094 -20.179688 C 34.707031 -18.117188 34.554688 -16.234375 34.78125 -14.691406 C 35.664062 -8.664062 41.0625 -6.019531 46.386719 -6.800781 C 51.292969 -7.523438 56.066406 -11.085938 57.382812 -17.71875 L 72.820312 -94.996094 C 74.789062 -105.019531 79.449219 -112.289062 86.316406 -113.296875 C 91.78125 -114.097656 96.121094 -109.867188 94.605469 -102.628906 L 82.941406 -45.519531 C 82.214844 -41.6875 82.089844 -37.664062 82.5625 -34.4375 C 84.59375 -20.566406 96.835938 -14.199219 110.429688 -16.195312 C 125.847656 -18.453125 139.082031 -30.703125 143.765625 -59.304688 C 143.878906 -60.46875 144.015625 -61.488281 143.871094 -62.46875 C 143.152344 -67.375 138.539062 -69.5625 134.332031 -68.945312 C 130.691406 -68.410156 127.496094 -65.792969 126.492188 -60.921875 Z M 126.492188 -60.921875 "/></g></g></g><g fill="#000000" fill-opacity="1"><g transform="translate(174.456262, 251.124875)"><g><path d="M 8.09375 -5.40625 C 4 -9.875 1.953125 -15.34375 1.953125 -21.8125 C 1.953125 -28.289062 4 -33.773438 8.09375 -38.265625 C 12.1875 -42.753906 17.382812 -45 23.6875 -45 C 29.488281 -45 34.265625 -43.179688 38.015625 -39.546875 L 38.015625 -43.71875 L 53.09375 -43.71875 L 53.09375 0 L 38.1875 0 L 38.1875 -4.9375 L 38.015625 -4.9375 C 34.265625 -0.789062 29.488281 1.28125 23.6875 1.28125 C 17.382812 1.28125 12.1875 -0.945312 8.09375 -5.40625 Z M 20.921875 -29.234375 C 18.960938 -27.304688 17.984375 -24.832031 17.984375 -21.8125 C 17.984375 -18.800781 18.921875 -16.34375 20.796875 -14.4375 C 22.671875 -12.539062 25.144531 -11.59375 28.21875 -11.59375 C 31.164062 -11.59375 33.59375 -12.554688 35.5 -14.484375 C 37.40625 -16.421875 38.359375 -18.863281 38.359375 -21.8125 C 38.359375 -24.832031 37.375 -27.304688 35.40625 -29.234375 C 33.445312 -31.171875 31.050781 -32.140625 28.21875 -32.140625 C 25.3125 -32.140625 22.878906 -31.171875 20.921875 -29.234375 Z M 20.921875 -29.234375 "/></g></g></g><g fill="#000000" fill-opacity="1"><g transform="translate(228.410296, 251.124875)"><g><path d="M 7.671875 -43.71875 L 7.671875 -60 L 22.75 -60 L 22.75 -43.71875 L 31.96875 -43.71875 L 31.96875 -32.21875 L 22.75 -32.21875 L 22.75 -18.328125 C 22.75 -14.296875 23.890625 -12.28125 26.171875 -12.28125 C 26.734375 -12.28125 27.328125 -12.390625 27.953125 -12.609375 C 28.578125 -12.835938 29.0625 -13.066406 29.40625 -13.296875 L 29.921875 -13.640625 L 33.671875 -1.453125 C 30.429688 0.367188 26.738281 1.28125 22.59375 1.28125 C 19.75 1.28125 17.300781 0.785156 15.25 -0.203125 C 13.207031 -1.203125 11.660156 -2.539062 10.609375 -4.21875 C 9.554688 -5.894531 8.800781 -7.65625 8.34375 -9.5 C 7.894531 -11.351562 7.671875 -13.328125 7.671875 -15.421875 L 7.671875 -32.21875 L 1.359375 -32.21875 L 1.359375 -43.71875 Z M 7.671875 -43.71875 "/></g></g></g><g fill="#000000" fill-opacity="1"><g transform="translate(257.816529, 251.124875)"><g><path d="M 49.34375 -19.78125 L 17.640625 -19.78125 C 17.640625 -16.707031 18.632812 -14.429688 20.625 -12.953125 C 22.613281 -11.472656 24.773438 -10.734375 27.109375 -10.734375 C 29.546875 -10.734375 31.472656 -11.0625 32.890625 -11.71875 C 34.316406 -12.375 35.941406 -13.664062 37.765625 -15.59375 L 48.671875 -10.140625 C 44.117188 -2.523438 36.5625 1.28125 26 1.28125 C 19.40625 1.28125 13.75 -0.976562 9.03125 -5.5 C 4.3125 -10.019531 1.953125 -15.457031 1.953125 -21.8125 C 1.953125 -28.175781 4.3125 -33.628906 9.03125 -38.171875 C 13.75 -42.722656 19.40625 -45 26 -45 C 32.925781 -45 38.5625 -42.992188 42.90625 -38.984375 C 47.257812 -34.984375 49.4375 -29.257812 49.4375 -21.8125 C 49.4375 -20.789062 49.40625 -20.113281 49.34375 -19.78125 Z M 18.0625 -28.125 L 34.6875 -28.125 C 34.34375 -30.394531 33.445312 -32.140625 32 -33.359375 C 30.550781 -34.585938 28.691406 -35.203125 26.421875 -35.203125 C 23.921875 -35.203125 21.929688 -34.546875 20.453125 -33.234375 C 18.972656 -31.929688 18.175781 -30.226562 18.0625 -28.125 Z M 18.0625 -28.125 "/></g></g></g><g fill="#000000" fill-opacity="1"><g transform="translate(304.951726, 251.124875)"><g><path d="M 24.125 -45 C 26.625 -45 29.09375 -44.710938 31.53125 -44.140625 C 33.976562 -43.578125 35.796875 -43.015625 36.984375 -42.453125 L 38.78125 -41.59375 L 33.84375 -31.703125 C 30.425781 -33.523438 27.1875 -34.4375 24.125 -34.4375 C 22.414062 -34.4375 21.207031 -34.25 20.5 -33.875 C 19.789062 -33.507812 19.4375 -32.816406 19.4375 -31.796875 C 19.4375 -31.566406 19.460938 -31.335938 19.515625 -31.109375 C 19.578125 -30.878906 19.691406 -30.664062 19.859375 -30.46875 C 20.023438 -30.269531 20.179688 -30.097656 20.328125 -29.953125 C 20.472656 -29.816406 20.710938 -29.660156 21.046875 -29.484375 C 21.390625 -29.316406 21.660156 -29.191406 21.859375 -29.109375 C 22.054688 -29.023438 22.382812 -28.894531 22.84375 -28.71875 C 23.300781 -28.550781 23.640625 -28.425781 23.859375 -28.34375 C 24.085938 -28.257812 24.472656 -28.128906 25.015625 -27.953125 C 25.554688 -27.785156 25.96875 -27.671875 26.25 -27.609375 C 28.007812 -27.097656 29.539062 -26.53125 30.84375 -25.90625 C 32.15625 -25.28125 33.535156 -24.425781 34.984375 -23.34375 C 36.429688 -22.269531 37.550781 -20.910156 38.34375 -19.265625 C 39.144531 -17.617188 39.546875 -15.742188 39.546875 -13.640625 C 39.546875 -3.691406 32.644531 1.28125 18.84375 1.28125 C 15.71875 1.28125 12.742188 0.796875 9.921875 -0.171875 C 7.109375 -1.140625 5.078125 -2.101562 3.828125 -3.0625 L 1.953125 -4.609375 L 8.09375 -14.921875 C 8.550781 -14.515625 9.148438 -14.039062 9.890625 -13.5 C 10.628906 -12.96875 11.960938 -12.234375 13.890625 -11.296875 C 15.828125 -10.359375 17.503906 -9.890625 18.921875 -9.890625 C 22.046875 -9.890625 23.609375 -10.941406 23.609375 -13.046875 C 23.609375 -14.003906 23.207031 -14.753906 22.40625 -15.296875 C 21.613281 -15.835938 20.265625 -16.445312 18.359375 -17.125 C 16.460938 -17.8125 14.972656 -18.4375 13.890625 -19 C 11.160156 -20.425781 9 -22.035156 7.40625 -23.828125 C 5.820312 -25.617188 5.03125 -27.988281 5.03125 -30.9375 C 5.03125 -35.375 6.75 -38.828125 10.1875 -41.296875 C 13.625 -43.765625 18.269531 -45 24.125 -45 Z M 24.125 -45 "/></g></g></g><g fill="#8c52ff" fill-opacity="0.6"><g transform="translate(219.261516, 186.556906)"><g><path d="M 96.347656 -46.40625 C 93.589844 -33.242188 88.640625 -26.847656 83.621094 -26.109375 C 81.488281 -25.796875 79.894531 -26.980469 79.582031 -29.117188 C 79.441406 -30.078125 79.589844 -31.300781 79.828125 -32.640625 L 90.128906 -82.132812 C 90.652344 -84.496094 90.828125 -87.03125 90.386719 -90.019531 C 88.917969 -100.054688 80.457031 -106.445312 69.566406 -104.851562 C 63.164062 -103.910156 55.851562 -100.222656 51.601562 -94.253906 C 47.558594 -98.789062 43.949219 -101.09375 36.691406 -100.027344 C 29.859375 -99.027344 26 -94.097656 25.652344 -93.503906 C 24.40625 -96.046875 21.105469 -97.742188 17.046875 -97.148438 C 13.953125 -96.695312 9.871094 -94.789062 8.988281 -90.40625 L -7.175781 -9.523438 C -7.445312 -8.394531 -7.304688 -7.433594 -7.164062 -6.472656 C -6.476562 -1.777344 -2.347656 0.34375 1.816406 -0.265625 C 5.445312 -0.796875 9.082031 -3.511719 10.101562 -8.460938 L 22.28125 -68.910156 C 23.792969 -76.4375 27.195312 -80.753906 32 -81.457031 C 37.550781 -82.273438 39.667969 -78.222656 37.902344 -69.457031 L 26.75 -15.371094 C 26.4375 -13.800781 26.320312 -12.363281 26.492188 -11.191406 C 27.164062 -6.601562 31.277344 -4.585938 35.332031 -5.179688 C 39.070312 -5.730469 42.707031 -8.441406 43.710938 -13.496094 L 55.46875 -72.359375 C 56.964844 -79.992188 60.515625 -85.53125 65.746094 -86.296875 C 69.910156 -86.90625 73.214844 -83.6875 72.0625 -78.171875 L 63.175781 -34.671875 C 62.621094 -31.753906 62.527344 -28.6875 62.886719 -26.234375 C 64.4375 -15.664062 73.761719 -10.816406 84.117188 -12.335938 C 95.859375 -14.058594 105.9375 -23.386719 109.503906 -45.171875 C 109.59375 -46.058594 109.695312 -46.835938 109.585938 -47.582031 C 109.039062 -51.320312 105.523438 -52.984375 102.320312 -52.515625 C 99.546875 -52.109375 97.113281 -50.117188 96.347656 -46.40625 Z M 96.347656 -46.40625 "/></g></g></g><g fill="#8c52ff" fill-opacity="1"><g transform="translate(216.236768, 183.670695)"><g><path d="M 96.347656 -46.40625 C 93.589844 -33.242188 88.640625 -26.847656 83.621094 -26.109375 C 81.488281 -25.796875 79.894531 -26.980469 79.582031 -29.117188 C 79.441406 -30.078125 79.589844 -31.300781 79.828125 -32.640625 L 90.128906 -82.132812 C 90.652344 -84.496094 90.828125 -87.03125 90.386719 -90.019531 C 88.917969 -100.054688 80.457031 -106.445312 69.566406 -104.851562 C 63.164062 -103.910156 55.851562 -100.222656 51.601562 -94.253906 C 47.558594 -98.789062 43.949219 -101.09375 36.691406 -100.027344 C 29.859375 -99.027344 26 -94.097656 25.652344 -93.503906 C 24.40625 -96.046875 21.105469 -97.742188 17.046875 -97.148438 C 13.953125 -96.695312 9.871094 -94.789062 8.988281 -90.40625 L -7.175781 -9.523438 C -7.445312 -8.394531 -7.304688 -7.433594 -7.164062 -6.472656 C -6.476562 -1.777344 -2.347656 0.34375 1.816406 -0.265625 C 5.445312 -0.796875 9.082031 -3.511719 10.101562 -8.460938 L 22.28125 -68.910156 C 23.792969 -76.4375 27.195312 -80.753906 32 -81.457031 C 37.550781 -82.273438 39.667969 -78.222656 37.902344 -69.457031 L 26.75 -15.371094 C 26.4375 -13.800781 26.320312 -12.363281 26.492188 -11.191406 C 27.164062 -6.601562 31.277344 -4.585938 35.332031 -5.179688 C 39.070312 -5.730469 42.707031 -8.441406 43.710938 -13.496094 L 55.46875 -72.359375 C 56.964844 -79.992188 60.515625 -85.53125 65.746094 -86.296875 C 69.910156 -86.90625 73.214844 -83.6875 72.0625 -78.171875 L 63.175781 -34.671875 C 62.621094 -31.753906 62.527344 -28.6875 62.886719 -26.234375 C 64.4375 -15.664062 73.761719 -10.816406 84.117188 -12.335938 C 95.859375 -14.058594 105.9375 -23.386719 109.503906 -45.171875 C 109.59375 -46.058594 109.695312 -46.835938 109.585938 -47.582031 C 109.039062 -51.320312 105.523438 -52.984375 102.320312 -52.515625 C 99.546875 -52.109375 97.113281 -50.117188 96.347656 -46.40625 Z M 96.347656 -46.40625 "/></g></g></g><g fill="#000000" fill-opacity="1"><g transform="translate(319.952736, 152.505981)"><g><path d="M 34.65625 -39.59375 L 50.40625 -39.59375 L 19.296875 20.0625 L 3.546875 20.0625 L 17.21875 -6.171875 L -1.546875 -39.59375 L 14.203125 -39.59375 L 25.234375 -19.296875 Z M 34.65625 -39.59375 "/></g></g></g></svg>