<svg xmlns="http://www.w3.org/2000/svg" xmlns:xlink="http://www.w3.org/1999/xlink" width="500" zoomAndPan="magnify" viewBox="0 0 375 374.999991" height="500" preserveAspectRatio="xMidYMid meet" version="1.0"><defs><g/></defs><g fill="#8c52ff" fill-opacity="0.6"><g transform="translate(94.909465, 190.573465)"><g><path d="M 67.03125 -82.71875 L 29.925781 -77.277344 C 25.128906 -76.574219 23.527344 -73.414062 23.925781 -70.722656 C 24.292969 -68.199219 26.503906 -66.03125 29.53125 -66.472656 L 34.582031 -67.214844 L 31.433594 -52.914062 L 27.5625 -52.347656 C 23.019531 -51.679688 21.238281 -48.582031 21.632812 -45.890625 C 22.015625 -43.28125 24.40625 -41.054688 28.445312 -41.648438 L 29.289062 -41.769531 L 25.945312 -25.292969 C 24.242188 -16.964844 21.101562 -14.957031 16.722656 -14.3125 C 13.695312 -13.871094 11.296875 -15.582031 10.242188 -17.488281 C 10.324219 -18.101562 10.320312 -18.703125 10.234375 -19.292969 C 9.667969 -23.164062 5.871094 -25.015625 2.589844 -24.53125 C -0.773438 -24.039062 -3.796875 -21.191406 -3.003906 -15.804688 C -1.832031 -7.8125 7.320312 -1.074219 18.34375 -2.691406 C 27.011719 -3.960938 34.929688 -9.160156 37.75 -23.328125 C 38.90625 -29.515625 40.574219 -37.496094 41.8125 -43.691406 L 46.859375 -44.433594 C 51.992188 -45.1875 53.582031 -48.425781 53.175781 -51.203125 C 52.816406 -53.644531 50.871094 -55.765625 48.347656 -55.394531 L 43.972656 -54.753906 L 46.699219 -68.992188 L 66.472656 -71.890625 C 71.160156 -72.75 72.78125 -75.738281 72.386719 -78.433594 C 72.019531 -80.957031 69.894531 -83.136719 67.03125 -82.71875 Z M 67.03125 -82.71875 "/></g></g></g><g fill="#8c52ff" fill-opacity="1"><g transform="translate(92.525147, 188.298357)"><g><path d="M 67.03125 -82.71875 L 29.925781 -77.277344 C 25.128906 -76.574219 23.527344 -73.414062 23.925781 -70.722656 C 24.292969 -68.199219 26.503906 -66.03125 29.53125 -66.472656 L 34.582031 -67.214844 L 31.433594 -52.914062 L 27.5625 -52.347656 C 23.019531 -51.679688 21.238281 -48.582031 21.632812 -45.890625 C 22.015625 -43.28125 24.40625 -41.054688 28.445312 -41.648438 L 29.289062 -41.769531 L 25.945312 -25.292969 C 24.242188 -16.964844 21.101562 -14.957031 16.722656 -14.3125 C 13.695312 -13.871094 11.296875 -15.582031 10.242188 -17.488281 C 10.324219 -18.101562 10.320312 -18.703125 10.234375 -19.292969 C 9.667969 -23.164062 5.871094 -25.015625 2.589844 -24.53125 C -0.773438 -24.039062 -3.796875 -21.191406 -3.003906 -15.804688 C -1.832031 -7.8125 7.320312 -1.074219 18.34375 -2.691406 C 27.011719 -3.960938 34.929688 -9.160156 37.75 -23.328125 C 38.90625 -29.515625 40.574219 -37.496094 41.8125 -43.691406 L 46.859375 -44.433594 C 51.992188 -45.1875 53.582031 -48.425781 53.175781 -51.203125 C 52.816406 -53.644531 50.871094 -55.765625 48.347656 -55.394531 L 43.972656 -54.753906 L 46.699219 -68.992188 L 66.472656 -71.890625 C 71.160156 -72.75 72.78125 -75.738281 72.386719 -78.433594 C 72.019531 -80.957031 69.894531 -83.136719 67.03125 -82.71875 Z M 67.03125 -82.71875 "/></g></g></g><g fill="#000000" fill-opacity="1"><g transform="translate(135.448018, 187.3459)"><g><path d="M 3.9375 -40.875 C 5 -41.9375 6.257812 -42.46875 7.71875 -42.46875 C 9.1875 -42.46875 10.445312 -41.9375 11.5 -40.875 C 12.5625 -39.820312 13.09375 -38.5625 13.09375 -37.09375 C 13.09375 -35.632812 12.5625 -34.375 11.5 -33.3125 C 10.445312 -32.25 9.1875 -31.71875 7.71875 -31.71875 C 6.257812 -31.71875 5 -32.25 3.9375 -33.3125 C 2.882812 -34.375 2.359375 -35.632812 2.359375 -37.09375 C 2.359375 -38.5625 2.882812 -39.820312 3.9375 -40.875 Z M 3.0625 -26.25 L 3.0625 0 L 12.125 0 L 12.125 -26.25 Z M 3.0625 -26.25 "/></g></g></g><g fill="#000000" fill-opacity="1"><g transform="translate(148.34455, 187.3459)"><g><path d="M 3.0625 0 L 3.0625 -26.25 L 12.125 -26.25 L 12.125 -23.484375 L 12.234375 -23.484375 C 14.585938 -25.835938 17.09375 -27.015625 19.75 -27.015625 C 21.050781 -27.015625 22.335938 -26.84375 23.609375 -26.5 C 24.890625 -26.164062 26.117188 -25.640625 27.296875 -24.921875 C 28.472656 -24.203125 29.425781 -23.1875 30.15625 -21.875 C 30.894531 -20.5625 31.265625 -19.035156 31.265625 -17.296875 L 31.265625 0 L 22.203125 0 L 22.203125 -14.84375 C 22.203125 -16.207031 21.765625 -17.398438 20.890625 -18.421875 C 20.023438 -19.441406 18.894531 -19.953125 17.5 -19.953125 C 16.132812 -19.953125 14.894531 -19.421875 13.78125 -18.359375 C 12.675781 -17.304688 12.125 -16.132812 12.125 -14.84375 L 12.125 0 Z M 3.0625 0 "/></g></g></g><g fill="#000000" fill-opacity="1"><g transform="translate(179.613524, 187.3459)"><g><path d="M 4.859375 -3.25 C 2.398438 -5.925781 1.171875 -9.207031 1.171875 -13.09375 C 1.171875 -16.988281 2.398438 -20.28125 4.859375 -22.96875 C 7.316406 -25.664062 10.4375 -27.015625 14.21875 -27.015625 C 17.695312 -27.015625 20.566406 -25.925781 22.828125 -23.75 L 22.828125 -44 L 31.875 -44 L 31.875 0 L 22.921875 0 L 22.921875 -2.96875 L 22.828125 -2.96875 C 20.566406 -0.476562 17.695312 0.765625 14.21875 0.765625 C 10.4375 0.765625 7.316406 -0.570312 4.859375 -3.25 Z M 12.5625 -17.546875 C 11.382812 -16.390625 10.796875 -14.90625 10.796875 -13.09375 C 10.796875 -11.289062 11.359375 -9.816406 12.484375 -8.671875 C 13.609375 -7.523438 15.09375 -6.953125 16.9375 -6.953125 C 18.707031 -6.953125 20.164062 -7.53125 21.3125 -8.6875 C 22.457031 -9.851562 23.03125 -11.320312 23.03125 -13.09375 C 23.03125 -14.90625 22.441406 -16.390625 21.265625 -17.546875 C 20.085938 -18.710938 18.644531 -19.296875 16.9375 -19.296875 C 15.195312 -19.296875 13.738281 -18.710938 12.5625 -17.546875 Z M 12.5625 -17.546875 "/></g></g></g><g fill="#8c52ff" fill-opacity="0.6"><g transform="translate(116.849206, 273.629633)"><g><path d="M 75.945312 -36.578125 C 73.773438 -26.203125 69.871094 -21.164062 65.914062 -20.582031 C 64.234375 -20.335938 62.980469 -21.269531 62.730469 -22.953125 C 62.621094 -23.710938 62.738281 -24.671875 62.925781 -25.730469 L 71.042969 -64.742188 C 71.457031 -66.605469 71.59375 -68.601562 71.25 -70.960938 C 70.089844 -78.867188 63.417969 -83.90625 54.835938 -82.648438 C 49.789062 -81.90625 44.027344 -79 40.675781 -74.296875 C 37.488281 -77.871094 34.644531 -79.6875 28.921875 -78.847656 C 23.535156 -78.058594 20.496094 -74.175781 20.21875 -73.703125 C 19.238281 -75.710938 16.636719 -77.046875 13.4375 -76.578125 C 11 -76.21875 7.78125 -74.714844 7.085938 -71.261719 L -5.65625 -7.507812 C -5.871094 -6.617188 -5.757812 -5.859375 -5.648438 -5.101562 C -5.105469 -1.398438 -1.851562 0.269531 1.429688 -0.210938 C 4.292969 -0.628906 7.15625 -2.769531 7.960938 -6.667969 L 17.5625 -54.320312 C 18.753906 -60.253906 21.4375 -63.652344 25.222656 -64.210938 C 29.597656 -64.851562 31.269531 -61.65625 29.875 -54.75 L 21.085938 -12.117188 C 20.839844 -10.878906 20.746094 -9.746094 20.882812 -8.820312 C 21.414062 -5.203125 24.652344 -3.617188 27.851562 -4.085938 C 30.796875 -4.515625 33.664062 -6.65625 34.453125 -10.640625 L 43.722656 -57.039062 C 44.902344 -63.054688 47.703125 -67.421875 51.824219 -68.023438 C 55.105469 -68.503906 57.714844 -65.964844 56.804688 -61.621094 L 49.796875 -27.328125 C 49.363281 -25.03125 49.285156 -22.613281 49.570312 -20.679688 C 50.792969 -12.347656 58.144531 -8.527344 66.304688 -9.722656 C 75.5625 -11.082031 83.507812 -18.433594 86.316406 -35.605469 C 86.386719 -36.304688 86.46875 -36.917969 86.382812 -37.507812 C 85.953125 -40.453125 83.179688 -41.765625 80.65625 -41.394531 C 78.46875 -41.074219 76.550781 -39.503906 75.945312 -36.578125 Z M 75.945312 -36.578125 "/></g></g></g><g fill="#8c52ff" fill-opacity="1"><g transform="translate(114.46489, 271.354527)"><g><path d="M 75.945312 -36.578125 C 73.773438 -26.203125 69.871094 -21.164062 65.914062 -20.582031 C 64.234375 -20.335938 62.980469 -21.269531 62.730469 -22.953125 C 62.621094 -23.710938 62.738281 -24.671875 62.925781 -25.730469 L 71.042969 -64.742188 C 71.457031 -66.605469 71.59375 -68.601562 71.25 -70.960938 C 70.089844 -78.867188 63.417969 -83.90625 54.835938 -82.648438 C 49.789062 -81.90625 44.027344 -79 40.675781 -74.296875 C 37.488281 -77.871094 34.644531 -79.6875 28.921875 -78.847656 C 23.535156 -78.058594 20.496094 -74.175781 20.21875 -73.703125 C 19.238281 -75.710938 16.636719 -77.046875 13.4375 -76.578125 C 11 -76.21875 7.78125 -74.714844 7.085938 -71.261719 L -5.65625 -7.507812 C -5.871094 -6.617188 -5.757812 -5.859375 -5.648438 -5.101562 C -5.105469 -1.398438 -1.851562 0.269531 1.429688 -0.210938 C 4.292969 -0.628906 7.15625 -2.769531 7.960938 -6.667969 L 17.5625 -54.320312 C 18.753906 -60.253906 21.4375 -63.652344 25.222656 -64.210938 C 29.597656 -64.851562 31.269531 -61.65625 29.875 -54.75 L 21.085938 -12.117188 C 20.839844 -10.878906 20.746094 -9.746094 20.882812 -8.820312 C 21.414062 -5.203125 24.652344 -3.617188 27.851562 -4.085938 C 30.796875 -4.515625 33.664062 -6.65625 34.453125 -10.640625 L 43.722656 -57.039062 C 44.902344 -63.054688 47.703125 -67.421875 51.824219 -68.023438 C 55.105469 -68.503906 57.714844 -65.964844 56.804688 -61.621094 L 49.796875 -27.328125 C 49.363281 -25.03125 49.285156 -22.613281 49.570312 -20.679688 C 50.792969 -12.347656 58.144531 -8.527344 66.304688 -9.722656 C 75.5625 -11.082031 83.507812 -18.433594 86.316406 -35.605469 C 86.386719 -36.304688 86.46875 -36.917969 86.382812 -37.507812 C 85.953125 -40.453125 83.179688 -41.765625 80.65625 -41.394531 C 78.46875 -41.074219 76.550781 -39.503906 75.945312 -36.578125 Z M 75.945312 -36.578125 "/></g></g></g><g fill="#000000" fill-opacity="1"><g transform="translate(191.265242, 228.567714)"><g><path d="M 4.859375 -3.25 C 2.398438 -5.925781 1.171875 -9.207031 1.171875 -13.09375 C 1.171875 -16.988281 2.398438 -20.28125 4.859375 -22.96875 C 7.316406 -25.664062 10.4375 -27.015625 14.21875 -27.015625 C 17.695312 -27.015625 20.566406 -25.925781 22.828125 -23.75 L 22.828125 -26.25 L 31.875 -26.25 L 31.875 0 L 22.921875 0 L 22.921875 -2.96875 L 22.828125 -2.96875 C 20.566406 -0.476562 17.695312 0.765625 14.21875 0.765625 C 10.4375 0.765625 7.316406 -0.570312 4.859375 -3.25 Z M 12.5625 -17.546875 C 11.382812 -16.390625 10.796875 -14.90625 10.796875 -13.09375 C 10.796875 -11.289062 11.359375 -9.816406 12.484375 -8.671875 C 13.609375 -7.523438 15.09375 -6.953125 16.9375 -6.953125 C 18.707031 -6.953125 20.164062 -7.53125 21.3125 -8.6875 C 22.457031 -9.851562 23.03125 -11.320312 23.03125 -13.09375 C 23.03125 -14.90625 22.441406 -16.390625 21.265625 -17.546875 C 20.085938 -18.710938 18.644531 -19.296875 16.9375 -19.296875 C 15.195312 -19.296875 13.738281 -18.710938 12.5625 -17.546875 Z M 12.5625 -17.546875 "/></g></g></g><g fill="#000000" fill-opacity="1"><g transform="translate(223.660102, 228.567714)"><g><path d="M 4.609375 -26.25 L 4.609375 -36.03125 L 13.65625 -36.03125 L 13.65625 -26.25 L 19.1875 -26.25 L 19.1875 -19.34375 L 13.65625 -19.34375 L 13.65625 -11 C 13.65625 -8.582031 14.335938 -7.375 15.703125 -7.375 C 16.046875 -7.375 16.40625 -7.441406 16.78125 -7.578125 C 17.15625 -7.710938 17.445312 -7.847656 17.65625 -7.984375 L 17.96875 -8.1875 L 20.21875 -0.875 C 18.269531 0.21875 16.050781 0.765625 13.5625 0.765625 C 11.851562 0.765625 10.382812 0.46875 9.15625 -0.125 C 7.925781 -0.71875 6.992188 -1.519531 6.359375 -2.53125 C 5.734375 -3.539062 5.285156 -4.597656 5.015625 -5.703125 C 4.742188 -6.816406 4.609375 -8.003906 4.609375 -9.265625 L 4.609375 -19.34375 L 0.8125 -19.34375 L 0.8125 -26.25 Z M 4.609375 -26.25 "/></g></g></g><g fill="#000000" fill-opacity="1"><g transform="translate(241.316073, 228.567714)"><g><path d="M 29.625 -11.875 L 10.59375 -11.875 C 10.59375 -10.03125 11.1875 -8.664062 12.375 -7.78125 C 13.570312 -6.894531 14.867188 -6.453125 16.265625 -6.453125 C 17.734375 -6.453125 18.894531 -6.644531 19.75 -7.03125 C 20.601562 -7.425781 21.578125 -8.203125 22.671875 -9.359375 L 29.21875 -6.09375 C 26.488281 -1.519531 21.953125 0.765625 15.609375 0.765625 C 11.648438 0.765625 8.253906 -0.585938 5.421875 -3.296875 C 2.585938 -6.015625 1.171875 -9.28125 1.171875 -13.09375 C 1.171875 -16.914062 2.585938 -20.191406 5.421875 -22.921875 C 8.253906 -25.648438 11.648438 -27.015625 15.609375 -27.015625 C 19.765625 -27.015625 23.144531 -25.8125 25.75 -23.40625 C 28.363281 -21 29.671875 -17.5625 29.671875 -13.09375 C 29.671875 -12.476562 29.65625 -12.070312 29.625 -11.875 Z M 10.84375 -16.890625 L 20.828125 -16.890625 C 20.617188 -18.253906 20.078125 -19.300781 19.203125 -20.03125 C 18.335938 -20.769531 17.222656 -21.140625 15.859375 -21.140625 C 14.359375 -21.140625 13.164062 -20.742188 12.28125 -19.953125 C 11.394531 -19.171875 10.914062 -18.148438 10.84375 -16.890625 Z M 10.84375 -16.890625 "/></g></g></g><g fill="#000000" fill-opacity="1"><g transform="translate(269.616795, 228.567714)"><g><path d="M 14.484375 -27.015625 C 15.984375 -27.015625 17.46875 -26.84375 18.9375 -26.5 C 20.40625 -26.164062 21.492188 -25.828125 22.203125 -25.484375 L 23.28125 -24.96875 L 20.3125 -19.03125 C 18.269531 -20.125 16.328125 -20.671875 14.484375 -20.671875 C 13.460938 -20.671875 12.738281 -20.5625 12.3125 -20.34375 C 11.882812 -20.125 11.671875 -19.707031 11.671875 -19.09375 C 11.671875 -18.945312 11.6875 -18.804688 11.71875 -18.671875 C 11.75 -18.535156 11.816406 -18.40625 11.921875 -18.28125 C 12.023438 -18.164062 12.117188 -18.066406 12.203125 -17.984375 C 12.285156 -17.898438 12.429688 -17.804688 12.640625 -17.703125 C 12.847656 -17.597656 13.007812 -17.519531 13.125 -17.46875 C 13.238281 -17.414062 13.429688 -17.335938 13.703125 -17.234375 C 13.984375 -17.140625 14.191406 -17.066406 14.328125 -17.015625 C 14.460938 -16.960938 14.691406 -16.882812 15.015625 -16.78125 C 15.335938 -16.675781 15.585938 -16.609375 15.765625 -16.578125 C 16.816406 -16.273438 17.734375 -15.9375 18.515625 -15.5625 C 19.304688 -15.1875 20.132812 -14.671875 21 -14.015625 C 21.875 -13.367188 22.550781 -12.550781 23.03125 -11.5625 C 23.507812 -10.570312 23.75 -9.445312 23.75 -8.1875 C 23.75 -2.21875 19.601562 0.765625 11.3125 0.765625 C 9.4375 0.765625 7.648438 0.476562 5.953125 -0.09375 C 4.265625 -0.675781 3.046875 -1.257812 2.296875 -1.84375 L 1.171875 -2.765625 L 4.859375 -8.953125 C 5.128906 -8.710938 5.484375 -8.429688 5.921875 -8.109375 C 6.367188 -7.785156 7.171875 -7.34375 8.328125 -6.78125 C 9.492188 -6.21875 10.503906 -5.9375 11.359375 -5.9375 C 13.234375 -5.9375 14.171875 -6.566406 14.171875 -7.828125 C 14.171875 -8.410156 13.929688 -8.863281 13.453125 -9.1875 C 12.972656 -9.507812 12.160156 -9.875 11.015625 -10.28125 C 9.878906 -10.695312 8.988281 -11.070312 8.34375 -11.40625 C 6.707031 -12.257812 5.410156 -13.222656 4.453125 -14.296875 C 3.492188 -15.378906 3.015625 -16.804688 3.015625 -18.578125 C 3.015625 -21.234375 4.046875 -23.300781 6.109375 -24.78125 C 8.171875 -26.269531 10.960938 -27.015625 14.484375 -27.015625 Z M 14.484375 -27.015625 "/></g></g></g><g fill="#8c52ff" fill-opacity="0.6"><g transform="translate(218.16704, 189.800079)"><g><path d="M 57.847656 -27.863281 C 56.191406 -19.960938 53.21875 -16.121094 50.207031 -15.675781 C 48.925781 -15.488281 47.972656 -16.199219 47.78125 -17.480469 C 47.699219 -18.058594 47.789062 -18.792969 47.929688 -19.597656 L 54.113281 -49.3125 C 54.429688 -50.734375 54.535156 -52.253906 54.269531 -54.050781 C 53.386719 -60.074219 48.308594 -63.914062 41.769531 -62.953125 C 37.925781 -62.390625 33.535156 -60.175781 30.984375 -56.59375 C 28.554688 -59.3125 26.386719 -60.699219 22.027344 -60.058594 C 17.925781 -59.457031 15.613281 -56.5 15.402344 -56.140625 C 14.65625 -57.667969 12.671875 -58.6875 10.234375 -58.328125 C 8.378906 -58.058594 5.925781 -56.910156 5.394531 -54.28125 L -4.308594 -5.71875 C -4.472656 -5.039062 -4.386719 -4.464844 -4.300781 -3.886719 C -3.886719 -1.066406 -1.410156 0.207031 1.089844 -0.160156 C 3.269531 -0.480469 5.453125 -2.109375 6.0625 -5.078125 L 13.378906 -41.375 C 14.285156 -45.894531 16.328125 -48.484375 19.210938 -48.910156 C 22.546875 -49.398438 23.820312 -46.964844 22.757812 -41.703125 L 16.0625 -9.230469 C 15.871094 -8.285156 15.800781 -7.425781 15.90625 -6.71875 C 16.308594 -3.964844 18.777344 -2.753906 21.214844 -3.109375 C 23.457031 -3.441406 25.640625 -5.070312 26.242188 -8.105469 L 33.304688 -43.445312 C 34.203125 -48.03125 36.335938 -51.355469 39.476562 -51.8125 C 41.972656 -52.179688 43.960938 -50.246094 43.265625 -46.9375 L 37.933594 -20.816406 C 37.597656 -19.066406 37.542969 -17.222656 37.757812 -15.75 C 38.6875 -9.40625 44.289062 -6.496094 50.503906 -7.40625 C 57.554688 -8.441406 63.609375 -14.042969 65.75 -27.121094 C 65.800781 -27.652344 65.863281 -28.121094 65.796875 -28.570312 C 65.46875 -30.8125 63.359375 -31.8125 61.4375 -31.53125 C 59.769531 -31.285156 58.308594 -30.089844 57.847656 -27.863281 Z M 57.847656 -27.863281 "/></g></g></g><g fill="#8c52ff" fill-opacity="1"><g transform="translate(216.350934, 188.067155)"><g><path d="M 57.847656 -27.863281 C 56.191406 -19.960938 53.21875 -16.121094 50.207031 -15.675781 C 48.925781 -15.488281 47.972656 -16.199219 47.78125 -17.480469 C 47.699219 -18.058594 47.789062 -18.792969 47.929688 -19.597656 L 54.113281 -49.3125 C 54.429688 -50.734375 54.535156 -52.253906 54.269531 -54.050781 C 53.386719 -60.074219 48.308594 -63.914062 41.769531 -62.953125 C 37.925781 -62.390625 33.535156 -60.175781 30.984375 -56.59375 C 28.554688 -59.3125 26.386719 -60.699219 22.027344 -60.058594 C 17.925781 -59.457031 15.613281 -56.5 15.402344 -56.140625 C 14.65625 -57.667969 12.671875 -58.6875 10.234375 -58.328125 C 8.378906 -58.058594 5.925781 -56.910156 5.394531 -54.28125 L -4.308594 -5.71875 C -4.472656 -5.039062 -4.386719 -4.464844 -4.300781 -3.886719 C -3.886719 -1.066406 -1.410156 0.207031 1.089844 -0.160156 C 3.269531 -0.480469 5.453125 -2.109375 6.0625 -5.078125 L 13.378906 -41.375 C 14.285156 -45.894531 16.328125 -48.484375 19.210938 -48.910156 C 22.546875 -49.398438 23.820312 -46.964844 22.757812 -41.703125 L 16.0625 -9.230469 C 15.871094 -8.285156 15.800781 -7.425781 15.90625 -6.71875 C 16.308594 -3.964844 18.777344 -2.753906 21.214844 -3.109375 C 23.457031 -3.441406 25.640625 -5.070312 26.242188 -8.105469 L 33.304688 -43.445312 C 34.203125 -48.03125 36.335938 -51.355469 39.476562 -51.8125 C 41.972656 -52.179688 43.960938 -50.246094 43.265625 -46.9375 L 37.933594 -20.816406 C 37.597656 -19.066406 37.542969 -17.222656 37.757812 -15.75 C 38.6875 -9.40625 44.289062 -6.496094 50.503906 -7.40625 C 57.554688 -8.441406 63.609375 -14.042969 65.75 -27.121094 C 65.800781 -27.652344 65.863281 -28.121094 65.796875 -28.570312 C 65.46875 -30.8125 63.359375 -31.8125 61.4375 -31.53125 C 59.769531 -31.285156 58.308594 -30.089844 57.847656 -27.863281 Z M 57.847656 -27.863281 "/></g></g></g><g fill="#000000" fill-opacity="1"><g transform="translate(278.623669, 169.355364)"><g><path d="M 20.8125 -23.78125 L 30.265625 -23.78125 L 11.59375 12.046875 L 2.125 12.046875 L 10.328125 -3.703125 L -0.921875 -23.78125 L 8.53125 -23.78125 L 15.15625 -11.59375 Z M 20.8125 -23.78125 "/></g></g></g></svg>